<svg width="385" height="64" viewBox="0 0 385 64" fill="none" xmlns="http://www.w3.org/2000/svg">
<g clip-path="url(#clip0_254_8)">
<rect width="64" height="64" rx="15" fill="#00DA71"/>
<path d="M36.946 25C36.8513 23.8163 36.4074 22.893 35.6143 22.2301C34.8331 21.5672 33.6435 21.2358 32.0455 21.2358C31.0275 21.2358 30.1929 21.3601 29.5419 21.6087C28.9027 21.8454 28.4292 22.1709 28.1214 22.5852C27.8137 22.9995 27.6539 23.473 27.642 24.0057C27.6184 24.4437 27.6953 24.8402 27.8729 25.1953C28.0623 25.5386 28.3582 25.8523 28.7607 26.1364C29.1631 26.4086 29.678 26.6572 30.3054 26.8821C30.9328 27.107 31.6785 27.3082 32.5426 27.4858L35.5256 28.125C37.5379 28.5511 39.2602 29.1134 40.6925 29.8118C42.1248 30.5102 43.2966 31.3329 44.2081 32.2798C45.1196 33.215 45.7884 34.2685 46.2145 35.4403C46.6525 36.6122 46.8774 37.8906 46.8892 39.2756C46.8774 41.6667 46.2796 43.6908 45.0959 45.348C43.9122 47.0052 42.2195 48.2659 40.0178 49.13C37.8279 49.9941 35.1941 50.4261 32.1165 50.4261C28.956 50.4261 26.1979 49.9586 23.8423 49.0234C21.4986 48.0883 19.6757 46.6501 18.3736 44.7088C17.0833 42.7557 16.4323 40.258 16.4205 37.2159H25.7955C25.8546 38.3286 26.1328 39.2637 26.63 40.0213C27.1271 40.7789 27.8255 41.353 28.7251 41.7436C29.6366 42.1342 30.7197 42.3295 31.9744 42.3295C33.0279 42.3295 33.9098 42.1993 34.62 41.9389C35.3303 41.6785 35.8688 41.3175 36.2358 40.8558C36.6027 40.3942 36.7921 39.8674 36.804 39.2756C36.7921 38.7192 36.6087 38.2339 36.2536 37.8196C35.9103 37.3935 35.3421 37.0147 34.549 36.6832C33.7559 36.34 32.6847 36.0204 31.3352 35.7244L27.7131 34.9432C24.4934 34.2448 21.9543 33.0788 20.0959 31.4453C18.2493 29.8 17.3319 27.5568 17.3438 24.7159C17.3319 22.4077 17.9474 20.3894 19.1903 18.6612C20.4451 16.9212 22.1792 15.5658 24.3928 14.5952C26.6181 13.6245 29.169 13.1392 32.0455 13.1392C34.9811 13.1392 37.5201 13.6304 39.6626 14.6129C41.8052 15.5954 43.4564 16.9804 44.6165 18.7678C45.7884 20.5433 46.3802 22.6207 46.392 25H36.946Z" fill="white"/>
<path d="M82.15 50V15H90.25V50H82.15ZM105.806 50V21.6H94.6063V15H125.106V21.6H113.906V50H105.806ZM155.125 50.6C152.325 50.6 149.641 50.2333 147.075 49.5C144.508 48.7333 142.441 47.75 140.875 46.55L143.625 40.45C145.125 41.5167 146.891 42.4 148.925 43.1C150.991 43.7667 153.075 44.1 155.175 44.1C156.775 44.1 158.058 43.95 159.025 43.65C160.025 43.3167 160.758 42.8667 161.225 42.3C161.691 41.7333 161.925 41.0833 161.925 40.35C161.925 39.4167 161.558 38.6833 160.825 38.15C160.091 37.5833 159.125 37.1333 157.925 36.8C156.725 36.4333 155.391 36.1 153.925 35.8C152.491 35.4667 151.041 35.0667 149.575 34.6C148.141 34.1333 146.825 33.5333 145.625 32.8C144.425 32.0667 143.441 31.1 142.675 29.9C141.941 28.7 141.575 27.1667 141.575 25.3C141.575 23.3 142.108 21.4833 143.175 19.85C144.275 18.1833 145.908 16.8667 148.075 15.9C150.275 14.9 153.025 14.4 156.325 14.4C158.525 14.4 160.691 14.6667 162.825 15.2C164.958 15.7 166.841 16.4667 168.475 17.5L165.975 23.65C164.341 22.7167 162.708 22.0333 161.075 21.6C159.441 21.1333 157.841 20.9 156.275 20.9C154.708 20.9 153.425 21.0833 152.425 21.45C151.425 21.8167 150.708 22.3 150.275 22.9C149.841 23.4667 149.625 24.1333 149.625 24.9C149.625 25.8 149.991 26.5333 150.725 27.1C151.458 27.6333 152.425 28.0667 153.625 28.4C154.825 28.7333 156.141 29.0667 157.575 29.4C159.041 29.7333 160.491 30.1167 161.925 30.55C163.391 30.9833 164.725 31.5667 165.925 32.3C167.125 33.0333 168.091 34 168.825 35.2C169.591 36.4 169.975 37.9167 169.975 39.75C169.975 41.7167 169.425 43.5167 168.325 45.15C167.225 46.7833 165.575 48.1 163.375 49.1C161.208 50.1 158.458 50.6 155.125 50.6ZM187.759 50.4C184.893 50.4 182.343 49.8 180.109 48.6C177.909 47.4 176.159 45.7667 174.859 43.7C173.593 41.6 172.959 39.2167 172.959 36.55C172.959 33.85 173.593 31.4667 174.859 29.4C176.159 27.3 177.909 25.6667 180.109 24.5C182.343 23.3 184.893 22.7 187.759 22.7C190.593 22.7 193.126 23.3 195.359 24.5C197.593 25.6667 199.343 27.2833 200.609 29.35C201.876 31.4167 202.509 33.8167 202.509 36.55C202.509 39.2167 201.876 41.6 200.609 43.7C199.343 45.7667 197.593 47.4 195.359 48.6C193.126 49.8 190.593 50.4 187.759 50.4ZM187.759 44C189.059 44 190.226 43.7 191.259 43.1C192.293 42.5 193.109 41.65 193.709 40.55C194.309 39.4167 194.609 38.0833 194.609 36.55C194.609 34.9833 194.309 33.65 193.709 32.55C193.109 31.45 192.293 30.6 191.259 30C190.226 29.4 189.059 29.1 187.759 29.1C186.459 29.1 185.293 29.4 184.259 30C183.226 30.6 182.393 31.45 181.759 32.55C181.159 33.65 180.859 34.9833 180.859 36.55C180.859 38.0833 181.159 39.4167 181.759 40.55C182.393 41.65 183.226 42.5 184.259 43.1C185.293 43.7 186.459 44 187.759 44ZM207.723 50V12.9H215.523V50H207.723ZM234.112 50.4C231.879 50.4 229.879 49.9667 228.112 49.1C226.379 48.2333 225.029 46.9167 224.062 45.15C223.095 43.35 222.612 41.0667 222.612 38.3V23.1H230.412V37.15C230.412 39.3833 230.879 41.0333 231.812 42.1C232.779 43.1333 234.129 43.65 235.862 43.65C237.062 43.65 238.129 43.4 239.062 42.9C239.995 42.3667 240.729 41.5667 241.262 40.5C241.795 39.4 242.062 38.0333 242.062 36.4V23.1H249.862V50H242.462V42.6L243.812 44.75C242.912 46.6167 241.579 48.0333 239.812 49C238.079 49.9333 236.179 50.4 234.112 50.4ZM268.088 50.4C264.922 50.4 262.455 49.6 260.688 48C258.922 46.3667 258.038 43.95 258.038 40.75V17.15H265.838V40.65C265.838 41.7833 266.138 42.6667 266.738 43.3C267.338 43.9 268.155 44.2 269.188 44.2C270.422 44.2 271.472 43.8667 272.338 43.2L274.438 48.7C273.638 49.2667 272.672 49.7 271.538 50C270.438 50.2667 269.288 50.4 268.088 50.4ZM253.888 29.7V23.7H272.538V29.7H253.888ZM278.817 50V23.1H286.617V50H278.817ZM282.717 19.35C281.283 19.35 280.117 18.9333 279.217 18.1C278.317 17.2667 277.867 16.2333 277.867 15C277.867 13.7667 278.317 12.7333 279.217 11.9C280.117 11.0667 281.283 10.65 282.717 10.65C284.15 10.65 285.317 11.05 286.217 11.85C287.117 12.6167 287.567 13.6167 287.567 14.85C287.567 16.15 287.117 17.2333 286.217 18.1C285.35 18.9333 284.183 19.35 282.717 19.35ZM306.656 50.4C303.789 50.4 301.239 49.8 299.006 48.6C296.806 47.4 295.056 45.7667 293.756 43.7C292.489 41.6 291.856 39.2167 291.856 36.55C291.856 33.85 292.489 31.4667 293.756 29.4C295.056 27.3 296.806 25.6667 299.006 24.5C301.239 23.3 303.789 22.7 306.656 22.7C309.489 22.7 312.023 23.3 314.256 24.5C316.489 25.6667 318.239 27.2833 319.506 29.35C320.773 31.4167 321.406 33.8167 321.406 36.55C321.406 39.2167 320.773 41.6 319.506 43.7C318.239 45.7667 316.489 47.4 314.256 48.6C312.023 49.8 309.489 50.4 306.656 50.4ZM306.656 44C307.956 44 309.123 43.7 310.156 43.1C311.189 42.5 312.006 41.65 312.606 40.55C313.206 39.4167 313.506 38.0833 313.506 36.55C313.506 34.9833 313.206 33.65 312.606 32.55C312.006 31.45 311.189 30.6 310.156 30C309.123 29.4 307.956 29.1 306.656 29.1C305.356 29.1 304.189 29.4 303.156 30C302.123 30.6 301.289 31.45 300.656 32.55C300.056 33.65 299.756 34.9833 299.756 36.55C299.756 38.0833 300.056 39.4167 300.656 40.55C301.289 41.65 302.123 42.5 303.156 43.1C304.189 43.7 305.356 44 306.656 44ZM342.97 22.7C345.103 22.7 347.003 23.1333 348.67 24C350.37 24.8333 351.703 26.1333 352.67 27.9C353.636 29.6333 354.12 31.8667 354.12 34.6V50H346.32V35.8C346.32 33.6333 345.836 32.0333 344.87 31C343.936 29.9667 342.603 29.45 340.87 29.45C339.636 29.45 338.52 29.7167 337.52 30.25C336.553 30.75 335.786 31.5333 335.22 32.6C334.686 33.6667 334.42 35.0333 334.42 36.7V50H326.62V23.1H334.07V30.55L332.67 28.3C333.636 26.5 335.02 25.1167 336.82 24.15C338.62 23.1833 340.67 22.7 342.97 22.7ZM370.24 50.4C367.94 50.4 365.723 50.1333 363.59 49.6C361.49 49.0333 359.823 48.3333 358.59 47.5L361.19 41.9C362.423 42.6667 363.873 43.3 365.54 43.8C367.24 44.2667 368.907 44.5 370.54 44.5C372.34 44.5 373.607 44.2833 374.34 43.85C375.107 43.4167 375.49 42.8167 375.49 42.05C375.49 41.4167 375.19 40.95 374.59 40.65C374.023 40.3167 373.257 40.0667 372.29 39.9C371.323 39.7333 370.257 39.5667 369.09 39.4C367.957 39.2333 366.807 39.0167 365.64 38.75C364.473 38.45 363.407 38.0167 362.44 37.45C361.473 36.8833 360.69 36.1167 360.09 35.15C359.523 34.1833 359.24 32.9333 359.24 31.4C359.24 29.7 359.723 28.2 360.69 26.9C361.69 25.6 363.123 24.5833 364.99 23.85C366.857 23.0833 369.09 22.7 371.69 22.7C373.523 22.7 375.39 22.9 377.29 23.3C379.19 23.7 380.773 24.2833 382.04 25.05L379.44 30.6C378.14 29.8333 376.823 29.3167 375.49 29.05C374.19 28.75 372.923 28.6 371.69 28.6C369.957 28.6 368.69 28.8333 367.89 29.3C367.09 29.7667 366.69 30.3667 366.69 31.1C366.69 31.7667 366.973 32.2667 367.54 32.6C368.14 32.9333 368.923 33.2 369.89 33.4C370.857 33.6 371.907 33.7833 373.04 33.95C374.207 34.0833 375.373 34.3 376.54 34.6C377.707 34.9 378.757 35.3333 379.69 35.9C380.657 36.4333 381.44 37.1833 382.04 38.15C382.64 39.0833 382.94 40.3167 382.94 41.85C382.94 43.5167 382.44 45 381.44 46.3C380.44 47.5667 378.99 48.5667 377.09 49.3C375.223 50.0333 372.94 50.4 370.24 50.4Z" fill="#4A5B53"/>
</g>
<defs>
<clipPath id="clip0_254_8">
<rect width="385" height="64" fill="white"/>
</clipPath>
</defs>
</svg>
